# AST/ASF file generated using VICON BodyLanguage
# -----------------------------------------------
:version 1.10
:name VICON
:units
  mass 1.0
  length 0.45
  angle deg
:documentation
   .ast/.asf automatically generated from VICON data using
   VICON BodyBuilder and BodyLanguage model FoxedUp or BRILLIANT.MOD
:root
   order TX TY TZ RX RY RZ
   axis XYZ
   position 0 0 0  
   orientation 0 0 0 
:bonedata
  begin
     id 1 
     name lhipjoint
     direction 0.650112 -0.723553 0.232005 
     length 2.45805 
     axis 0 0 0  XYZ
  end
  begin
     id 2 
     name lfemur
     direction 0.34202 -0.939693 0  
     length 7.00073  
     axis 0 0 20  XYZ
    dof rx ry rz
    limits (-160.0 20.0)
           (-70.0 70.0)
           (-60.0 70.0)
  end
  begin
     id 3 
     name ltibia
     direction 0.34202 -0.939693 0   
     length 7.8748   
     axis 0 0 20   XYZ
    dof rx
    limits (-10.0 170.0)
  end
  begin
     id 4 
     name lfoot
     direction 0.0542825 -0.14914 0.987325   
     length 1.75978   
     axis -90 7.62852e-016 20   XYZ
    dof rx rz
    limits (-45.0 90.0)
           (-70.0 20.0)
  end
  begin
     id 5 
     name ltoes
     direction 1.53509e-011 -4.21906e-011 1   
     length 0.893912   
     axis -90 7.62852e-016 20   XYZ
    dof rx
    limits (-90.0 20.0)
  end
  begin
     id 6 
     name rhipjoint
     direction -0.637897 -0.733345 0.235145   
     length 2.42522  
     axis 0 0 0  XYZ 
  end
  begin
     id 7 
     name rfemur
     direction -0.34202 -0.939693 0   
     length 7.02549   
     axis 0 0 -20   XYZ
    dof rx ry rz
    limits (-160.0 20.0)
           (-70.0 70.0)
           (-70.0 60.0)
  end
  begin
     id 8 
     name rtibia
     direction -0.34202 -0.939693 0   
     length 7.71512   
     axis 0 0 -20   XYZ
    dof rx
    limits (-10.0 170.0)
 end
 begin
     id 9 
     name rfoot
     direction -0.0822618 -0.226012 0.970645   
     length 1.90014  
     axis -90 -7.62852e-016 -20   XYZ
    dof rx rz
    limits (-45.0 90.0)
           (-20.0 70.0)
  end
  begin
     id 10 
     name rtoes
     direction -1.53542e-011 -4.21872e-011 1   
     length 0.957341   
     axis -90 -7.62852e-016 -20   XYZ
    dof rx
    limits (-90.0 20.0)
  end
  begin
     id 11 
     name lowerback
     direction -0.0022947 0.999774 -0.0211557   
     length 1.89909   
     axis 0 0 0   XYZ
    dof rx ry rz
    limits (-20.0 45.0)
           (-30.0 30.0)
           (-30.0 30.0)
  end
  begin
     id 12 
     name upperback
     direction 0.0107737 0.998635 0.0511027   
     length 1.8853   
     axis 0 0 0   XYZ
    dof rx ry rz
    limits (-20.0 45.0)
           (-30.0 30.0)
           (-30.0 30.0)
  end
  begin
     id 13 
     name thorax
     direction 0.011824 0.998136 0.0598754   
     length 1.88911   
     axis 0 0 0   XYZ
    dof rx ry rz
    limits (-20.0 45.0)
           (-30.0 30.0)
           (-30.0 30.0)
  end
  begin
     id 14 
     name lowerneck
     direction -0.0685355 0.990319 0.120714   
     length 1.91222   
     axis 0 0 0   XYZ
    dof rx ry rz
    limits (-20.0 45.0)
           (-30.0 30.0)
           (-30.0 30.0)
  end
  begin
     id 15 
     name upperneck
     direction 0.0886204 0.955665 -0.280805   
     length 1.92526   
     axis 0 0 0   XYZ
    dof rx ry rz
    limits (-20.0 45.0)
           (-30.0 30.0)
           (-30.0 30.0)
  end
  begin
     id 16
     name head
     direction 0.0233423 0.993502 -0.111393  
     length 1.96056  
     axis 0 0 0   XYZ
    dof rx ry rz
    limits (-20.0 45.0)
           (-30.0 30.0)
           (-30.0 30.0)
  end
  begin
     id 17 
     name lclavicle
     direction 0.941873 0.32922 0.0670041  
     length 3.31705  
     axis 0 0 0   XYZ
    dof ry rz
    limits (-20.0 10.0)
           (0.0 20.0)
  end
  begin
     id 18 
     name lhumerus
     direction 1 -4.4898e-011 3.38707e-028   
     length 5.29277   
     axis 180 -30 -90   XYZ
    dof rx ry rz
    limits (-60.0 90.0)
           (-90.0 90.0)
           (-90.0 90.0)
  end
  begin
     id 19
     name lradius
     direction 1 -4.48952e-011 1.63213e-028   
     length 2.85226   
     axis 180 -30 -90   XYZ
    dof rx
    limits (-10.0 170.0)
  end
  begin
     id 20
     name lwrist
     direction 1 -4.49001e-011 1.27856e-027   
     length 1.42613   
     axis -1.61767e-015 90 90   XYZ
    dof ry
    limits (-180.0 0.0)
 end
  begin
     id 21 
     name lhand
     direction 1 -4.48976e-011 2.55931e-027   
     length 0.602097   
     axis -1.63363e-015 90 90   XYZ
    dof rx rz
    limits (-90.0 90.0)
           (-45.0 45.0)
  end
  begin
     id 22 
     name lfingers
     direction 1 -4.48986e-011 5.11684e-027   
     length 0.485426   
     axis -3.26723e-015 90 90   XYZ
    dof rx
    limits (0.0 90.0)
  end
  begin
     id 23
     name lthumb
     direction 0.707107 -6.34915e-011 0.707107   
     length 0.696978   
     axis -90 45 -2.25915e-014   XYZ
    dof rx rz
    limits (-45.0 45.0)
           (-45.0 45.0)
  end
  begin
     id 24 
     name rclavicle
     direction -0.939974 0.327078 0.0973096   
     length 3.10337  
     axis 0 0 0   XYZ 
    dof ry rz
    limits (-10.0 20.0)
           (-20.0 0.0)
  end
  begin
     id 25 
     name rhumerus
     direction -1 -4.48975e-011 1.83745e-027  
     length 5.13304   
     axis 180 30 90   XYZ
    dof rx ry rz
    limits (-90.0 60.0)
           (-90.0 90.0)
           (-90.0 90.0)
  end
  begin
     id 26 
     name rradius
     direction -1 -4.48977e-011 7.1775e-029   
     length 2.74305   
     axis 180 30 90   XYZ
    dof rx
    limits (-10.0 170.0)
  end
  begin
     id 27 
     name rwrist
     direction -1 -4.48977e-011 1.27963e-027   
     length 1.37152   
     axis -1.61767e-015 -90 -90   XYZ
    dof ry
    limits (-180.0 0.0)
  end
  begin
     id 28
     name rhand
     direction -1 -4.4888e-011 2.56782e-027   
     length 0.767976   
     axis -1.63363e-015 -90 -90   XYZ
    dof rx rz
    limits (-90.0 90.0)
           (-45.0 45.0)
  end
  begin
     id 29
     name rfingers
     direction -1 -4.48947e-011 5.12384e-027   
     length 0.619162   
     axis -3.26723e-015 -90 -90   XYZ
    dof rx
    limits (0.0 90.0)
  end
  begin
     id 30
     name rthumb
     direction -0.707107 -6.34857e-011 0.707107   
     length 0.888997   
     axis -90 -45 2.25915e-014   XYZ
    dof rx rz
    limits (-45.0 45.0)
           (-45.0 45.0)
  end
:hierarchy
  begin
    root lhipjoint rhipjoint lowerback
    lhipjoint lfemur
    lfemur ltibia
    ltibia lfoot
    lfoot ltoes
    rhipjoint rfemur
    rfemur rtibia
    rtibia rfoot
    rfoot rtoes
    lowerback upperback
    upperback thorax
    thorax lowerneck lclavicle rclavicle
    lowerneck upperneck
    upperneck head
    lclavicle lhumerus
    lhumerus lradius
    lradius lwrist
    lwrist lhand lthumb
    lhand lfingers
    rclavicle rhumerus
    rhumerus rradius
    rradius rwrist
    rwrist rhand rthumb
    rhand rfingers
  end

#!OML:ASF F:\VICON\USERDATA\INSTALL\rory3\rory3.ASF
:FULLY-SPECIFIED
:DEGREES
151
root 0.0454217 17.5102 -0.222335 7.26689 1.20309 0.241949
lowerback -0.494321 0.165621 -2.2692
upperback -2.09954 0.2207 0.880325
thorax -1.88835 0.157608 2.17286
lowerneck -13.0779 -12.3195 -16.9921
upperneck 22.2017 -18.1833 17.3513
head 12.8783 -7.94012 6.30447
rclavicle -2.7892e-015 -5.36719e-015
rhumerus -32.2358 10.5632 -93.5464
rradius 23.9103
rwrist 27.3279
rhand -7.09438 11.97
rfingers 7.12502
rthumb 18.78 -17.1434
lclavicle -2.7892e-015 -5.36719e-015
lhumerus -28.8723 -7.72417 95.7994
lradius 16.7489
lwrist -23.3184
lhand -6.59109 24.0036
lfingers 7.12502
lthumb 19.2641 53.0695
rfemur 0.85101 11.1454 18.258
rtibia -6.36111e-015
rfoot -5.7609 -12.9037
rtoes -15.459
lfemur -5.34567 -18.8405 -17.9656
ltibia 9.8051
lfoot -11.4923 11.8986
ltoes -20.2656
152
root 0.0439591 17.5113 -0.226798 7.34344 1.2499 0.208571
lowerback -0.431933 0.151819 -2.23235
upperback -2.11786 0.201424 0.899246
thorax -1.94108 0.148397 2.1717
lowerneck -13.0327 -12.3057 -16.9433
upperneck 21.9837 -18.1262 17.3082
head 12.7581 -7.92167 6.2847
rclavicle -8.59122e-015 3.57812e-015
rhumerus -32.7064 12.2612 -94.2958
rradius 24.7692
rwrist 26.6626
rhand -6.32715 11.6506
rfingers 7.12502
rthumb 19.5178 -17.3897
lclavicle -8.59122e-015 3.57812e-015
lhumerus -29.166 -10.1761 96.7381
lradius 17.4564
lwrist -21.8911
lhand -5.59373 24.3352
lfingers 7.12502
lthumb 20.2229 53.3025
rfemur 0.762626 11.101 18.2841
rtibia -1.59028e-015
rfoot -5.79442 -12.8926
rtoes -14.8435
lfemur -5.52545 -18.8785 -17.8851
ltibia 9.92843
lfoot -11.403 11.9319
ltoes -21.0381
153
root 0.043206 17.512 -0.230769 7.41773 1.31595 0.246894
lowerback -0.337884 0.129831 -2.25023
upperback -2.15557 0.169725 0.895316
thorax -2.03108 0.134393 2.17795
lowerneck -13.0515 -12.314 -16.8876
upperneck 21.8615 -18.1018 17.2293
head 12.6913 -7.91481 6.24327
rclavicle -2.82026e-015 3.77691e-015
rhumerus -33.1797 13.9476 -95.0261
rradius 25.6088
rwrist 26.0981
rhand -5.48277 11.5764
rfingers 7.12502
rthumb 20.3295 -17.3796
lclavicle -2.82026e-015 3.77691e-015
lhumerus -29.5843 -12.8195 97.7481
lradius 18.4036
lwrist -20.3244
lhand -4.47199 24.6762
lfingers 7.12502
lthumb 21.3007 53.5257
rfemur 0.676184 11.0277 18.2272
rtibia -7.95139e-015
rfoot -5.80294 -12.8651
rtoes -14.2762
lfemur -5.73959 -18.9459 -17.886
ltibia 10.1109
lfoot -11.4958 11.9049
ltoes -21.1888
154
root 0.0424394 17.5134 -0.235944 7.48549 1.3901 0.166563
lowerback -0.26092 0.112223 -2.15943
upperback -2.16598 0.146191 0.940022
thorax -2.08351 0.122216 2.17316
lowerneck -13.1253 -12.337 -16.8904
upperneck 21.7288 -18.0905 17.202
head 12.648 -7.91047 6.22617
rclavicle 3.00662e-015 -1.0138e-014
rhumerus -33.6843 16.0311 -95.8936
rradius 26.5967
rwrist 25.1071
rhand -4.63616 11.5602
rfingers 7.12502
rthumb 21.143 -17.3069
lclavicle 3.00662e-015 -1.0138e-014
lhumerus -30.0567 -15.8161 98.8855
lradius 19.5829
lwrist -18.5226
lhand -2.92925 25.0499
lfingers 7.12502
lthumb 22.7819 53.7247
rfemur 0.569503 10.9625 18.3044
rtibia -1.43125e-014
rfoot -5.89191 -12.8396
rtoes -14.7616
lfemur -5.93 -19.004 -17.7488
ltibia 10.2413
lfoot -11.5573 11.9565
ltoes -21.2689
155
root 0.0415997 17.5143 -0.240649 7.57438 1.45793 0.0556677
lowerback -0.260662 0.117014 -2.02825
upperback -2.14934 0.154625 0.98265
thorax -2.06652 0.124099 2.14315
lowerneck -13.1543 -12.35 -16.9416
upperneck 21.4682 -18.078 17.3137
head 12.5685 -7.9013 6.27006
rclavicle -2.60905e-016 -2.38542e-015
rhumerus -34.2707 18.229 -96.7889
rradius 27.8816
rwrist 23.9901
rhand -3.56842 11.4755
rfingers 7.12502
rthumb 22.1683 -17.2734
lclavicle -2.60905e-016 -2.38542e-015
lhumerus -30.5569 -18.9128 99.99
lradius 21.0185
lwrist -16.8602
lhand -1.00339 25.6323
lfingers 7.12502
lthumb 24.629 54.0676
rfemur 0.423103 10.9073 18.4134
rtibia -1.74931e-014
rfoot -6.01706 -12.8179
rtoes -15.7407
lfemur -6.12791 -19.0498 -17.5661
ltibia 10.3414
lfoot -11.4616 12.0087
ltoes -21.4761
156
root 0.0406775 17.5147 -0.244354 7.63649 1.52972 0.0549891
lowerback -0.265267 0.0975895 -2.04302
upperback -2.11417 0.129588 1.03219
thorax -2.02668 0.111499 2.20279
lowerneck -13.2131 -12.3653 -17.045
upperneck 21.2571 -18.0558 17.4091
head 12.5165 -7.89083 6.3184
rclavicle 2.79541e-015 -1.39149e-014
rhumerus -34.813 20.1245 -97.4285
rradius 29.346
rwrist 23.5409
rhand -1.9508 11.6685
rfingers 7.12502
rthumb 23.7206 -16.8877
lclavicle 2.79541e-015 -1.39149e-014
lhumerus -30.9308 -21.5323 100.859
lradius 22.6277
lwrist -15.6097
lhand 1.5804 26.4713
lfingers 7.12502
lthumb 27.1032 54.5456
rfemur 0.344376 10.8346 18.413
rtibia 1.43125e-014
rfoot -6.02517 -12.8412
rtoes -16.0235
lfemur -6.28838 -19.1162 -17.5131
ltibia 10.443
lfoot -11.6246 11.9701
ltoes -20.6041
157
root 0.0399139 17.5147 -0.248024 7.70754 1.63539 0.088355
lowerback -0.294711 0.0812556 -2.03062
upperback -2.07496 0.108331 1.0207
thorax -1.96857 0.0994238 2.18432
lowerneck -13.3154 -12.3927 -17.019
upperneck 21.0886 -18.0571 17.417
head 12.4695 -7.88533 6.30542
rclavicle -1.77664e-015 -5.36719e-015
rhumerus -35.2984 21.6753 -97.9498
rradius 30.923
rwrist 23.6324
rhand -0.0927053 12.0777
rfingers 7.12502
rthumb 25.5016 -16.2358
lclavicle -1.77664e-015 -5.36719e-015
lhumerus -31.2279 -24.0031 101.502
lradius 24.3932
lwrist -14.4006
lhand 4.25895 27.2802
lfingers 7.12502
lthumb 29.6629 54.928
rfemur 0.266472 10.7233 18.3787
rtibia -4.77083e-015
rfoot -5.97263 -12.8736
rtoes -16.3109
lfemur -6.42307 -19.2207 -17.4916
ltibia 10.4679
lfoot -11.8605 11.8605
ltoes -19.2085
158
root 0.0377987 17.5155 -0.253731 7.79609 1.7946 0.175767
lowerback -0.328827 0.0692933 -2.05478
upperback -2.03427 0.0923593 0.986754
thorax -1.90668 0.0903574 2.1632
lowerneck -13.4112 -12.4566 -17.0625
upperneck 20.9116 -18.1065 17.4621
head 12.4407 -7.9035 6.30762
rclavicle 7.30534e-015 2.78299e-015
rhumerus -35.9031 23.4241 -98.5816
rradius 32.6256
rwrist 22.946
rhand 1.14194 12.069
rfingers 7.12502
rthumb 26.6837 -16.07
lclavicle 7.30534e-015 2.78299e-015
lhumerus -31.5613 -26.5722 102.124
lradius 26.2587
lwrist -12.9904
lhand 6.43643 27.7256
lfingers 7.12502
lthumb 31.7391 54.9835
rfemur 0.19487 10.5509 18.2883
rtibia 1.27222e-014
rfoot -5.96314 -12.8806
rtoes -15.8962
lfemur -6.56072 -19.3834 -17.496
ltibia 10.4096
lfoot -11.5303 11.9412
ltoes -20.3102
159
root 0.0361204 17.5169 -0.258649 7.83715 1.9986 0.257802
lowerback -0.303557 0.0465086 -2.05001
upperback -2.015 0.0604868 0.916995
thorax -1.8992 0.0733989 2.08921
lowerneck -13.4389 -12.5001 -17.0633
upperneck 20.7682 -18.1654 17.5488
head 12.4142 -7.92249 6.3221
rclavicle 7.95139e-016 3.77691e-015
rhumerus -36.6268 25.1113 -99.2726
rradius 34.5986
rwrist 21.8288
rhand 2.25656 11.8402
rfingers 7.12502
rthumb 27.7499 -16.1317
lclavicle 7.95139e-016 3.77691e-015
lhumerus -31.9783 -28.9872 102.554
lradius 28.3039
lwrist -11.4779
lhand 8.64814 28.0343
lfingers 7.12502
lthumb 33.843 54.8528
rfemur 0.204479 10.3366 18.2272
rtibia 1.59028e-015
rfoot -5.84574 -12.9021
rtoes -15.2902
lfemur -6.62607 -19.5917 -17.5031
ltibia 10.3091
lfoot -11.1791 12.0025
ltoes -21.451
160
root 0.034136 17.5182 -0.259405 7.83323 2.10453 0.315981
lowerback -0.286459 0.0598231 -2.05979
upperback -2.00165 0.0766466 0.836481
thorax -1.89573 0.0807224 2.01171
lowerneck -13.3707 -12.5171 -16.9527
upperneck 20.6011 -18.2092 17.5912
head 12.338 -7.93676 6.30838
rclavicle -8.68441e-015 -6.36111e-015
rhumerus -37.3536 26.5169 -99.8104
rradius 36.877
rwrist 20.8484
rhand 4.17569 11.6235
rfingers 7.12502
rthumb 29.5834 -16.0384
lclavicle -8.68441e-015 -6.36111e-015
lhumerus -32.4085 -31.293 102.801
lradius 30.6252
lwrist -9.57865
lhand 11.1729 28.7081
lfingers 7.12502
lthumb 36.238 54.9658
rfemur 0.244423 10.2242 18.1876
rtibia -1.27222e-014
rfoot -5.8262 -12.9184
rtoes -14.6587
lfemur -6.56059 -19.702 -17.5204
ltibia 10.1355
lfoot -11.0959 11.976
ltoes -21.299
161
root 0.0327424 17.5178 -0.25811 7.80969 2.14055 0.378027
lowerback -0.269054 0.0900019 -2.11077
upperback -2.0004 0.115411 0.787769
thorax -1.90622 0.100627 1.98973
lowerneck -13.2748 -12.5169 -16.8825
upperneck 20.4891 -18.226 17.6143
head 12.274 -7.94466 6.30301
rclavicle 1.2921e-015 -2.18663e-015
rhumerus -38.0748 27.755 -100.137
rradius 39.2722
rwrist 19.9746
rhand 5.94597 11.8325
rfingers 7.12502
rthumb 31.2718 -15.5169
lclavicle 1.2921e-015 -2.18663e-015
lhumerus -32.7327 -33.2273 102.856
lradius 33.0851
lwrist -7.63494
lhand 13.549 29.446
lfingers 7.12502
lthumb 38.4841 55.1118
rfemur 0.29443 10.181 18.1371
rtibia 1.27222e-014
rfoot -5.82286 -12.8971
rtoes -14.5761
lfemur -6.45243 -19.7468 -17.582
ltibia 9.98112
lfoot -11.1478 11.9366
ltoes -20.7714
162
root 0.0308217 17.5181 -0.258064 7.80891 2.2014 0.50491
lowerback -0.268049 0.0973565 -2.24435
upperback -2.01445 0.123374 0.747551
thorax -1.92207 0.10683 2.0233
lowerneck -13.2214 -12.5245 -16.9059
upperneck 20.4609 -18.2407 17.6352
head 12.2607 -7.95475 6.3132
rclavicle 4.22417e-015 -6.55989e-015
rhumerus -38.7703 28.9555 -100.295
rradius 41.7902
rwrist 19.1969
rhand 6.81355 12.3289
rfingers 7.12502
rthumb 32.0982 -14.8573
lclavicle 4.22417e-015 -6.55989e-015
lhumerus -32.9983 -34.7465 102.726
lradius 35.7591
lwrist -6.04656
lhand 15.6324 30.1191
lfingers 7.12502
lthumb 40.4466 55.2088
rfemur 0.32162 10.1035 18.0151
rtibia -1.59028e-014
rfoot -5.88331 -12.8747
rtoes -14.6938
lfemur -6.42025 -19.8241 -17.6964
ltibia 9.89645
lfoot -11.2392 11.9269
ltoes -20.1173
